<svg xmlns="http://www.w3.org/2000/svg" xmlns:xlink="http://www.w3.org/1999/xlink" width="1920" height="1080" viewBox="0 0 1920 1080">
  <defs>
    <style>
      .cn { font-family: "Microsoft YaHei", "Noto Sans CJK SC", sans-serif; letter-spacing: 0; }
      .ink { fill: #202b3c; }
      .muted { fill: #596579; }
      .nav { fill: #fff; font-size: 30px; font-weight: 700; }
      .section { fill: #173f8f; font-size: 27px; font-weight: 700; }
      .small { font-size: 20px; }
      .body { font-size: 23px; }
      .label { font-size: 25px; font-weight: 700; }
      .module-title { font-size: 26px; font-weight: 700; }
    </style>
    <filter id="shadow" x="-10%" y="-10%" width="120%" height="130%">
      <feDropShadow dx="0" dy="4" stdDeviation="7" flood-color="#16315e" flood-opacity="0.16"/>
    </filter>
    <marker id="arrow" viewBox="0 0 18 12" markerWidth="32" markerHeight="24" refX="16" refY="6" orient="auto" markerUnits="userSpaceOnUse">
      <path d="M0 0 18 6 0 12Z" fill="#ffe900" stroke="#f3a600"/>
    </marker>
    <clipPath id="c1"><rect x="103" y="826" width="360" height="132" rx="5"/></clipPath>
    <clipPath id="c2"><rect x="531" y="826" width="360" height="132" rx="5"/></clipPath>
    <clipPath id="c3"><rect x="959" y="826" width="360" height="132" rx="5"/></clipPath>
    <clipPath id="c4"><rect x="1387" y="826" width="360" height="132" rx="5"/></clipPath>
  </defs>

  <rect width="1920" height="1080" fill="#f4f7fb"/>
  <rect x="18" y="18" width="1884" height="1044" fill="#fff" stroke="#c8d1df" stroke-width="2"/>
  <path d="M36 32H1884V132H1190L1152 150 1114 132H36Z" fill="#12479d"/>
  <g class="cn">
    <text x="70" y="77" fill="#fff" font-size="35" font-weight="800">AEROSIM-737</text>
    <text x="70" y="108" fill="#bcd4ff" font-size="18">Unity × JSBSim 飞行模拟系统</text>
    <text class="nav" x="657" y="94">项目背景</text><rect x="829" y="62" width="3" height="38" fill="#e4efff"/>
    <text class="nav" x="872" y="94">系统组成</text><rect x="1044" y="62" width="3" height="38" fill="#e4efff"/>
    <text class="nav" x="1088" y="94">输入控制</text><rect x="1260" y="62" width="3" height="38" fill="#e4efff"/>
    <text class="nav" x="1304" y="94">项目结构</text><rect x="1476" y="62" width="3" height="38" fill="#e4efff"/>
    <text class="nav" x="1520" y="94">功能输出</text>
  </g>

  <g filter="url(#shadow)"><rect x="70" y="184" width="480" height="494" fill="#fff" stroke="#f0a600" stroke-width="2"/></g>
  <text class="cn section" x="94" y="226">输入与交互层</text><line x1="94" y1="240" x2="526" y2="240" stroke="#e8edf5" stroke-width="2"/>
  <g class="cn">
    <rect x="102" y="267" width="416" height="104" rx="12" fill="#f7faff" stroke="#4776c9" stroke-width="4"/>
    <g transform="translate(126 292)" fill="none" stroke="#173f8f" stroke-width="4"><rect width="72" height="47" rx="5"/><path d="M11 13h8m7 0h8m7 0h8m7 0h8M11 27h8m7 0h8m7 0h8m7 0h8M18 39h39"/></g>
    <text class="label ink" x="224" y="311">键盘飞行控制</text><text class="body muted" x="224" y="344">俯仰 / 滚转 / 偏航 / 油门 / 构型</text>
    <rect x="102" y="394" width="416" height="104" rx="12" fill="#f7faff" stroke="#4776c9" stroke-width="4"/>
    <g transform="translate(132 414)" fill="none" stroke="#173f8f" stroke-width="4"><path d="M31 58V18c0-9 8-16 17-16s17 7 17 16v40M17 58h62M8 69h80M41 16h14M19 43h16m26 0h16"/></g>
    <text class="label ink" x="224" y="438">TCA / A320 侧杆</text><text class="body muted" x="224" y="471">摇杆、油门、扭转舵、POV 视角</text>
    <rect x="102" y="521" width="416" height="122" rx="12" fill="#f7faff" stroke="#4776c9" stroke-width="4"/>
    <g transform="translate(141 548)" fill="none" stroke="#173f8f" stroke-width="4"><rect x="12" width="42" height="64" rx="20"/><path d="M0 36c0 20 13 34 33 34s33-14 33-34M33 70v16M17 86h32"/></g>
    <text class="label ink" x="224" y="568">讯飞语音控制</text><text class="body muted" x="224" y="601">语音听写 → 指令解析 → 飞控操作</text><text class="small muted" x="224" y="627">环境变量凭据 · WebSocket 接入</text>
  </g>

  <g filter="url(#shadow)"><rect x="650" y="184" width="700" height="494" fill="#fff" stroke="#f0a600" stroke-width="2"/></g>
  <text class="cn section" x="674" y="226">Unity 可视化与交互层</text><line x1="674" y1="240" x2="1326" y2="240" stroke="#e8edf5" stroke-width="2"/>
  <g class="cn">
    <g transform="translate(692 268)" fill="#222b39"><path d="M30 0 58 16 49 23 30 12 12 23 3 17ZM3 22 12 28 12 49 30 59 30 70 3 55ZM58 22 49 28 49 49 30 59 30 70 58 55ZM17 30 30 22 44 30 44 45 30 53 17 45Z"/></g>
    <text x="772" y="316" fill="#202b3c" font-size="47" font-weight="800">UNITY 2022.3 · URP</text>
    <rect x="690" y="343" width="620" height="82" rx="14" fill="#fff" stroke="#4776c9" stroke-width="5"/><text x="1000" y="395" text-anchor="middle" fill="#4a5568" font-size="36" font-weight="600">AeroSim-737 飞行模拟主系统</text>
    <g>
      <rect x="684" y="450" width="194" height="184" rx="10" fill="#f8fbff" stroke="#a9c2e9" stroke-width="2"/><path d="M684 460a10 10 0 0 1 10-10h174a10 10 0 0 1 10 10v32H684Z" fill="#e7f0ff"/><text class="module-title ink" x="781" y="480" text-anchor="middle">场景与飞机</text><text class="body muted" x="704" y="529">StartMenu</text><text class="body muted" x="704" y="562">MainScene</text><text class="body muted" x="704" y="595">B737.prefab</text><text class="small" x="704" y="620" fill="#12479d">入口、机体与驾驶舱</text>
      <rect x="903" y="450" width="194" height="184" rx="10" fill="#f8fbff" stroke="#a9c2e9" stroke-width="2"/><path d="M903 460a10 10 0 0 1 10-10h174a10 10 0 0 1 10 10v32H903Z" fill="#e7f0ff"/><text class="module-title ink" x="1000" y="480" text-anchor="middle">飞控与桥接</text><text class="body muted" x="923" y="529">FlightInput</text><text class="body muted" x="923" y="562">JsbsimBridge</text><text class="body muted" x="923" y="595">舵面 / 起落架</text><text class="small" x="923" y="620" fill="#12479d">控制保护与状态分发</text>
      <rect x="1122" y="450" width="194" height="184" rx="10" fill="#f8fbff" stroke="#a9c2e9" stroke-width="2"/><path d="M1122 460a10 10 0 0 1 10-10h174a10 10 0 0 1 10 10v32H1122Z" fill="#e7f0ff"/><text class="module-title ink" x="1219" y="480" text-anchor="middle">显示与环境</text><text class="body muted" x="1142" y="529">仪表 / HUD / FMS</text><text class="body muted" x="1142" y="562">相机 / 地图 / 声音</text><text class="body muted" x="1142" y="595">天气 / Cesium</text><text class="small" x="1142" y="620" fill="#12479d">交互、渲染与大世界</text>
    </g>
  </g>

  <g filter="url(#shadow)"><rect x="1450" y="184" width="400" height="494" fill="#fff" stroke="#f0a600" stroke-width="2"/></g>
  <text class="cn section" x="1474" y="226">外部动力学进程</text><line x1="1474" y1="240" x2="1826" y2="240" stroke="#e8edf5" stroke-width="2"/>
  <g class="cn">
    <rect x="1492" y="268" width="316" height="98" rx="14" fill="#f7faff" stroke="#4776c9" stroke-width="5"/><text x="1650" y="310" text-anchor="middle" fill="#173f8f" font-size="39" font-weight="800">JSBSim 1.3</text><text x="1650" y="342" text-anchor="middle" class="body muted">飞行动力学计算核心</text>
    <rect x="1492" y="401" width="316" height="190" rx="12" fill="#f8fbff" stroke="#a9c2e9" stroke-width="2"/><text class="module-title ink" x="1650" y="441" text-anchor="middle">实时状态求解</text><line x1="1520" y1="457" x2="1780" y2="457" stroke="#d6e1ef" stroke-width="2"/><text class="body muted" x="1523" y="495">气动力 · 推进系统 · 起落架</text><text class="body muted" x="1523" y="530">位置 · 姿态 · 空速 · 高度</text><text class="body muted" x="1523" y="565">b737_unity.xml / unity_air.xml</text>
    <rect x="1492" y="610" width="316" height="42" rx="8" fill="#e7f0ff"/><text x="1650" y="638" text-anchor="middle" font-size="20" font-weight="700" fill="#173f8f">Windows 随 Unity 自动启动 / 退出清理</text>
  </g>

  <g class="cn">
    <line x1="551" y1="318" x2="630" y2="318" stroke="#ffe900" stroke-width="14" marker-end="url(#arrow)"/><rect x="551" y="267" width="91" height="36" rx="5" fill="#fff"/><text x="596" y="293" text-anchor="middle" font-size="20" font-weight="700" fill="#303b4d">操纵输入</text>
    <line x1="1366" y1="322" x2="1432" y2="322" stroke="#ffe900" stroke-width="14" marker-end="url(#arrow)"/><rect x="1332" y="266" width="134" height="55" rx="5" fill="#fff"/><text x="1399" y="293" text-anchor="middle" font-size="19" font-weight="700" fill="#303b4d">TCP 5502</text><text x="1399" y="316" text-anchor="middle" font-size="17" fill="#596579">控制指令</text>
    <line x1="1432" y1="390" x2="1366" y2="390" stroke="#ffe900" stroke-width="14" marker-end="url(#arrow)"/><rect x="1332" y="405" width="134" height="58" rx="5" fill="#fff"/><text x="1399" y="430" text-anchor="middle" font-size="19" font-weight="700" fill="#303b4d">UDP 5501</text><text x="1399" y="453" text-anchor="middle" font-size="17" fill="#596579">飞行状态</text>
    <line x1="1000" y1="681" x2="1000" y2="727" stroke="#ffe900" stroke-width="14" marker-end="url(#arrow)"/><rect x="1020" y="688" width="184" height="36" rx="5" fill="#fff"/><text x="1112" y="714" text-anchor="middle" font-size="20" font-weight="700" fill="#303b4d">状态分发与渲染</text>
  </g>

  <g filter="url(#shadow)"><rect x="70" y="760" width="1780" height="262" fill="#fff" stroke="#f0a600" stroke-width="2"/></g>
  <text class="cn section" x="94" y="802">输出与表现层</text><line x1="294" y1="792" x2="1826" y2="792" stroke="#e8edf5" stroke-width="2"/>
  <g class="cn">
    <rect x="95" y="818" width="376" height="180" rx="8" fill="#fff" stroke="#a9c2e9" stroke-width="2"/><image x="103" y="826" width="360" height="132" xlink:href="飞行.png" preserveAspectRatio="xMidYMid slice" clip-path="url(#c1)"/><rect x="103" y="930" width="360" height="28" fill="#0d1b2d" opacity=".72"/><text x="283" y="986" text-anchor="middle" font-size="24" font-weight="700" fill="#202b3c">飞机姿态 · 舵面 · 特效</text>
    <rect x="523" y="818" width="376" height="180" rx="8" fill="#fff" stroke="#a9c2e9" stroke-width="2"/><image x="531" y="826" width="360" height="132" xlink:href="仪表.png" preserveAspectRatio="xMidYMid slice" clip-path="url(#c2)"/><rect x="531" y="930" width="360" height="28" fill="#0d1b2d" opacity=".72"/><text x="711" y="986" text-anchor="middle" font-size="24" font-weight="700" fill="#202b3c">PFD · ND · EICAS · FMS</text>
    <rect x="951" y="818" width="376" height="180" rx="8" fill="#fff" stroke="#a9c2e9" stroke-width="2"/><image x="959" y="826" width="360" height="132" xlink:href="下雨.png" preserveAspectRatio="xMidYMid slice" clip-path="url(#c3)"/><rect x="959" y="930" width="360" height="28" fill="#0d1b2d" opacity=".72"/><text x="1139" y="986" text-anchor="middle" font-size="24" font-weight="700" fill="#202b3c">天气 · Cesium · 大世界</text>
    <rect x="1379" y="818" width="376" height="180" rx="8" fill="#fff" stroke="#a9c2e9" stroke-width="2"/><image x="1387" y="826" width="360" height="132" xlink:href="机舱.png" preserveAspectRatio="xMidYMid slice" clip-path="url(#c4)"/><rect x="1387" y="930" width="360" height="28" fill="#0d1b2d" opacity=".72"/><text x="1567" y="986" text-anchor="middle" font-size="24" font-weight="700" fill="#202b3c">三类相机 · 地图 · 声音</text>
  </g>
  <text class="cn" x="1818" y="1048" text-anchor="end" font-size="17" fill="#8a95a6">AeroSim-737 项目结构 · 2026-07-15</text>
</svg>
